<svg xmlns="http://www.w3.org/2000/svg" fill="none" viewBox="0 0 419 310"><path fill="#F6B05A" d="M124.82 242.94c-2.93 2.7-6.02 4.68-9.47 5.7-1.82.54-3.51.85-5.22.47-2.96-.65-4.96-2.83-6.45-4.88-5-6.75-10.91-19.92-13.02-24.8-.25-.53-.5-1.11-.76-1.73-.56-1.38-.85-2.06-1-2.73-.67-2.87-.31-7.1 1.91-8.06a2 2 0 0 1 .53-.15l2.3 12.47c.13.8.9 1.34 1.7 1.18l1.87.36c7.83 14.24 12.74 17.22 15.9 16.64 1.69-.3 2.66-1.58 8.29-10.54.33 1.12.69 1.92.73 2.07.47 1.17 2 6.13 2.7 14Z"/><path fill="#ED904D" d="M123.64 267.74a60.08 60.08 0 0 1-4.02 7.32 56.84 56.84 0 0 1-5.67 7.6 18.18 18.18 0 0 1-7.56 4.64l-5.95-4.08c-11.4-7.77-14.25-9.74-18.36-9.23-3.8.5-5.9 2.7-17.03 14.25l-3.71 3.83-20.68 1.02 13.1-16.73s4.12-5.5 9.61-11.3c7.5-7.91 11.77-11.76 17.77-13 2.5-.53 6.15-.73 24.54 7.28 7.46 3.24 13.58 6.2 17.96 8.4Z"/><path fill="#FCC36C" d="m11.17 301.27-.16 7.98H1.04a.73.73 0 0 1-.73-.73v-20.57c0-.34.23-.66.56-.7.34-.1.67.1.83.38.6 1.23 2.93 6.67 3.73 8.72.87 2.22 1.33 3.34 2.51 4.12.6.42 1.25.64 3.23.8Z"/><path fill="#2F2334" d="M1.04 309.25a.73.73 0 0 1-.73-.73v-20.57a.73.73 0 0 1 1.38-.32c.62 1.23 2.93 6.65 3.74 8.72.04.1.08.16.11.26v12.64h-4.5ZM130.71 199.4c-1.4 3.1-2.84 6.2-4.27 9.3-.04.06-.06.15-.1.22l-.36.69-1 1.85c-1.2-2.46.49-3.88-.16-7.22-.73-3.9-3.44-4.06-4.71-7.8a6.9 6.9 0 0 1-.22-3.9c1.15 1.5 2.3 2.43 3.26 2.7 1.67.44 3.07 0 3.07 0a5.34 5.34 0 0 0 2.67-2.03c.42.93.82 2.03 1.16 3.25.3 1.05.53 2.05.66 2.94Z"/><path fill="#5289CB" d="M157.61 267.63c-11.32 0-22.63 0-33.92.02a94.3 94.3 0 0 0 1.13-24.71c-.69-7.87-2.22-12.83-2.69-14-.04-.15-.4-.95-.73-2.07-.02-.04-.02-.1-.05-.15-.35-1.16-.55-2.1-.86-3.37-.78-3.23 1.3-6.1 4.49-11.9.33-.57.66-1.2 1-1.84.1-.22.24-.45.35-.7a15.12 15.12 0 0 0 2.93-1.9c.16-.12.34-.25.52-.41a13.7 13.7 0 0 0 1.78-1.85 16 16 0 0 0 2.89-5.53 17.93 17.93 0 0 0 2.9 7.16c.16.2.3.38.47.55a10.74 10.74 0 0 0 4.56 3.14c2.4.98 4.94 1.65 7.36 4.44.58.67 1.04 1.34 1.44 2l.07.14c10.12 21.48 7.94 41.86 6.36 50.98Z"/><path fill="#FCC36C" d="M134.31 198.18c.03.31.07.67.14 1.04a15.73 15.73 0 0 1-8.12 9.7c.75-1.62 3.68-7.97 4.38-9.52-.13-.89-.35-1.9-.67-2.94a21.77 21.77 0 0 0-1.15-3.25 5.34 5.34 0 0 1-2.67 2.03s-1.4.44-3.07 0c-.95-.27-2.1-1.2-3.22-2.63-3-3.8-5.73-10.66-4.69-16.44a16.73 16.73 0 0 0 6.9 4.76c3.5 1.32 7.1 1.43 9.04-.06.51-.4 1.3-1.12 2.21-1 .85.1 1.63 1.08 1.7 2.13a2.2 2.2 0 0 1-.8 1.87c-.35.3-.78.4-1.13.4-.54 0-1.03-.13-1.31.16-.87.82 1.53 3.36 2.42 7.22.67 2.94-.25 3.63.04 6.53Z"/><path fill="#FFAD60" d="M148.14 300.64c-7.1 6.49-16.12 7.2-20.85 7.51-39.3 2.59-110.75 1.21-116.28 1.1l.24-12.53a329.69 329.69 0 0 1 29.41-3.63c8.85-.7 15.92-.9 20.68-1.02 14.07-.38 34-.32 45.05-4.77 4.45-1.8 7.05-4.1 7.56-4.64a56.84 56.84 0 0 0 5.67-7.6 60.08 60.08 0 0 0 4.02-7.32c11.34-.11 22.65-.11 33.97-.11.6 6.9 1.11 23.3-9.47 33.01Z"/><path fill="#26A69A" d="M102.6 219.85c.13.8-.38 1.59-1.18 1.72l-6.4-1.14a1.4 1.4 0 0 1-.78-.25 1.5 1.5 0 0 1-.6-.95l-.78-4.22-1.52-8.25-.24-1.39c-.02-.09-.1-.61.25-1.09.3-.4.73-.5.83-.53l6.63 1.07c.1.02.37.06.64.25.47.32.58.82.6.95l2.54 13.83Z"/><path fill="#FCC36C" d="M147.53 215.12c-.96-2.3-3.4-4.83-5.81-4.64-3.1.23-4.52 4.76-8.87 13.89-6.9 14.46-8.34 16.32-10.28 16.52-2.22.23-4.82-2.77-10-8.77-4.1-4.73-3.5-5.33-7.51-10.87 0 0-2.3-3.17-2.48-5.52-.02-.33-.05-.6-.11-1.16-.16-1.4-.23-1.65-.34-1.88a2.73 2.73 0 0 0-1.06-1.13l.33 1.61c-.1.03-.3.05-.5-.04-1.26-.5-.3-3.74-1.7-4.76-.73-.53-1.96-.34-2.7.15-2.03 1.32-1.68 5.55-.52 8.26a11.3 11.3 0 0 0 1.44 2.52c4.5 5.74 6.85 16.88 15.83 28.63 2.07 2.71 4.63 5.64 8.34 6.05a9.3 9.3 0 0 0 4.58-.77c8.64-3.53 13.95-15.06 20.08-28.73 1.2-2.67 2.65-6.06 1.28-9.36Z"/><path fill="#2F2334" d="M155.96 212.15a17.37 17.37 0 0 1-3.46 7.17c-.25-.71-.65-1.65-1.25-2.67l-.06-.14a14.1 14.1 0 0 0-1.45-2c-4.25-4.86-8.83-3.3-12.38-8.13a17.92 17.92 0 0 1-3.05-8.2c-.29-2.88.63-3.57-.04-6.53-.87-3.86-3.3-6.42-2.45-7.24.5-.5 1.54.22 2.47-.54.56-.44.85-1.18.8-1.9-.07-1.02-.83-2-1.7-2.1a1.74 1.74 0 0 0-.59.02c-.69.18-1.27.69-1.62.96-3.34 2.6-11.67.45-15.94-4.67-.91-1.09-1.38-1.64-1.44-2.56-.23-2.71 3.7-5.9 8.62-7.44a17.8 17.8 0 0 1 2.67-.62c1.18-.22 2.35-.3 3.56-.27.26 0 2.06.07 4.33.74 1.58-2.7 4.62-3.9 7.02-3.03 2.78 1 4.6 4.74 3.27 6.7-.51.74-1.44 1.12-2.53 1.27a17.6 17.6 0 0 1 2.98 5.55c1.17 3.4.3 4.21 1.33 6.75 1.49 3.74 3.78 3.01 5.76 6.66 1.78 3.34.57 5.24 1.26 7.69.14.45.47.98 1.03 2.07 1.58 3.12 2.18 3.75 2.66 4.86 1.23 2.71.65 5.48.2 7.6Z"/><path fill="#F6B05A" d="M93.68 212.86c-.27.58-.58 1.15-.82 2.15l-1.51-8.25c.2-.12.42-.14.64-.12 1 .07 1.62.9 1.73 1 1.34 1.79.07 4.89-.04 5.22Z"/><path fill="#5289CB" d="M382.75 199c-24.5 52.4-65.59 77.35-79.67 85.1-3.06-15.8-10.2-63.43 14.31-115.82 5.64-12.06 28.72-58.16 79.67-85.1 3.06 15.8 10.2 63.41-14.3 115.81Z"/><path fill="#fff" d="m319.26 246.79-16.55 35.3.37 2 1.56-.86 7.45-15.9 29-10.98c1.34-1.26 2.7-2.56 4.05-3.91l-31.7 11.99 21.11-45.03 47.2-18.33c.33-.7.68-1.38 1-2.08.14-.28.26-.56.39-.85l-47.22 18.34 23.79-50.76 38.65-18.67.37-2.65-37.52 18.13 36.23-77.31-.38-2.04c-.51.27-1 .55-1.5.83l-25.57 54.55-4.9-33.42c-.68.58-1.34 1.16-2 1.75l5.18 35.32-23.3 49.71-13.02-49.21c-.57.84-1.11 1.66-1.64 2.48l13.14 49.7.16-.05-22.83 48.7-12.24-52.56c-.45 1.42-.88 2.84-1.3 4.25l12.02 51.56Z"/><path fill="#FFAD60" d="M377.15 273.02c-29.92 28.06-63.56 34.02-75.37 35.57 1.98-11.69 9.38-46.35 39.83-76.07 7-6.84 34.83-32.6 76.91-37.91-1.79 11.38-9.01 48.06-41.37 78.4Z"/><path fill="#fff" d="m340.31 272.71 37.77-.6c.8-.75 1.57-1.5 2.33-2.26l-37.8.6 40.14-39.62 25.78-2.36 1-2.32-24.28 2.21 33.1-32.66.17-1.1c-.9.12-1.77.3-2.67.43l-14.32 14.14 2.48-11.82c-.82.2-1.6.43-2.4.65l-2.95 14-39.08 38.56 3.32-35.03-2.38 1.6-3.38 35.68.16.01-38.25 37.75 4.55-36.42c-.96 1.43-1.9 2.86-2.78 4.28l-4.32 34.66-14.52 14.33-.2 1.17c1.69-.23 3.84-.53 6.35-.99h-3.19l35.37-34.89Z"/><path fill="#5289CB" d="M392.05 284.4c.02-1.23-.92-2.45-1.85-2.94-3.68-1.93-11.03 5.5-13.22 7.85a59.25 59.25 0 0 1-7.36 1.56l-.89.13c2.85-.9 5.5-2.5 7.01-4.95.54-.87 1.7-2.75.94-3.93-.72-1.13-3.2-1.45-4.74-.38-1.91 1.32-5.71 7.8-6.8 9.68-3.14.28-5.77.3-8.82.42a10.03 10.03 0 0 0 3.83-2.41c1.93-1.82 4.7-4.42 3.9-6.59a3.82 3.82 0 0 0-2.61-2.16c-1.63-.38-2.63.36-3.4 1.95-.7 1.49-.67 2.8-.71 3.45-.1 1.44-.83 3.46-3.67 5.9-1.78.1-4.14.27-6.68.57 2.76-.9 5.35-2.82 6.26-5.45.25-.72 1-2.88-.15-4.43-.66-.89-2-1.66-3.23-1.34-.26.06-.7.23-1.18.72-2.47 2.52 1.03 6.54-4.4 10.87-1.5.23-3.01.52-4.43.88-.8.2-1.6.44-2.4.7a14.23 14.23 0 0 0 4.9-4.27c.97-1.29 1.69-2.28 1.65-3.65-.06-2.1-1.23-3.02-3.29-1.96-1.32.68-2.42 2.74-2.82 4.11a37.42 37.42 0 0 1-3 6.73c-5.12 2.13-10 5.5-14.57 10.05-.33.34.17.84.5.5a46.05 46.05 0 0 1 10.87-8.21c5.15 2.28 4.03 5.51 6.03 6.59.79.42 1.98.53 2.78-.1 1.17-.93.72-2.82.67-3.04-.55-2.3-4.17-4.8-7.95-4.23a41.63 41.63 0 0 1 11.06-3.45c2.78 2.97 3.17 4.97 4.85 7.43 1.16 1.7 2 2.9 3.08 2.83.74-.06 1.44-.7 1.75-1.4 1.11-2.47-2.66-6.1-3.9-7.3a7.45 7.45 0 0 0-3.01-1.96c2.19-.27 4.37-.42 6.56-.53a20.63 20.63 0 0 1 4.25 5.79c.86 1.77 1.29 3.38 2.67 3.8 1 .31 2.3-.1 2.88-.92 1.1-1.6-.81-4.45-2.06-5.92a9.02 9.02 0 0 0-4.2-2.9c2.63-.09 5.27-.17 7.91-.37 1.09 1.81 3.6 5.33 7.85 6.36.9.22 4.54 1.11 5.8-.72.78-1.12.56-3.05-.45-4-1.77-1.7-5.36.97-11.23-1.8 3.35-.33 6.72-.9 10.12-1.95 2.88.45 6.68.48 10.38-1.29 1.4-.67 4.48-2.14 4.52-4.32Z"/><path fill="#26A69A" d="M317.69 309.26H173.03a15.48 15.48 0 0 1-15.43-15.46V16.02c0-8.5 6.94-15.46 15.43-15.46h144.66c8.48 0 15.42 6.95 15.42 15.46V293.8c0 8.5-6.94 15.46-15.42 15.46Z"/><path fill="#F7F1EB" d="M326.02 25.22v256.33c0 4.66-3.7 8.47-8.2 8.47h-144.4a8.36 8.36 0 0 1-8.21-8.47V25.22c0-4.67 3.7-8.5 8.2-8.5h144.42c4.5 0 8.2 3.83 8.2 8.5Z"/><path fill="#C4F0EC" d="M268.7 11.25h-46.67a1.78 1.78 0 0 1 0-3.56h46.66a1.78 1.78 0 0 1 0 3.56Zm-52.53-1.79a2.87 2.87 0 1 1-5.73.01 2.87 2.87 0 0 1 5.73 0Zm64.09 0a2.87 2.87 0 1 1-5.73.01 2.87 2.87 0 0 1 5.74 0Z"/><path fill="#5289CB" d="M325.76 25.22v3.51H164.95v-3.51c0-4.67 3.7-8.5 8.2-8.5h144.41c4.5 0 8.2 3.83 8.2 8.5Z"/><path fill="#fff" d="M290.75 26.86h-2.2V23.9h2.2v2.95Zm3.63 0h-2.2v-4.44h2.2v4.43Zm3.62 0h-2.2v-6.03h2.2v6.03Zm3.63 0h-2.2v-7.61h2.2v7.6Zm7.13-6.28v1.13h-1.79v2.69h1.8v1.12h10.4v-4.94h-10.4Z"/><path fill="#C4F0EC" d="M259.57 304.38h-28.42c-2.7 0-4.9-2.21-4.9-4.91v-.19c0-2.7 2.2-4.91 4.9-4.91h28.42c2.7 0 4.9 2.21 4.9 4.91v.19c0 2.7-2.2 4.91-4.9 4.91Z"/><path fill="#FFAD60" d="M93.02 139.85h-67.7a9.91 9.91 0 0 0-9.87 9.9v21.63c0 5.44 4.44 9.9 9.87 9.9h53.5l8.94 8.94a1.76 1.76 0 0 0 1.94.39c.67-.28 1.1-.93 1.1-1.65v-7.69h2.22a9.92 9.92 0 0 0 9.87-9.9v-21.62c0-5.45-4.44-9.9-9.87-9.9Z"/><path fill="#fff" d="M92.57 153.4h-66.8v-2.24h66.8v2.24Zm0 8.28h-66.8v-2.23h66.8v2.23Zm-30.69 8.28h-36.1v-2.23h36.1v2.23Z"/><path fill="#E22F59" fill-rule="evenodd" d="M245.93 213.54a52.1 52.1 0 0 0 52.04-52.17 52.1 52.1 0 0 0-52.04-52.16 52.1 52.1 0 0 0-52.04 52.16 52.1 52.1 0 0 0 52.04 52.17Zm0 11.7c35.2 0 63.73-28.6 63.73-63.87 0-35.28-28.54-63.87-63.73-63.87-35.2 0-63.73 28.6-63.73 63.87 0 35.28 28.53 63.88 63.73 63.88Z" clip-rule="evenodd"/><path fill="#9E6C5A" d="m236.95 115.4-23.8 114.87 30.3 6.3 23.8-114.86-13.65-10.38-16.65 4.07Zm-24.3 115.49a.35.35 0 0 1-.27-.42l23.92-115.43a.35.35 0 0 1 .26-.27l17.04-4.17c.1-.02.2 0 .3.07l13.96 10.61c.11.09.16.23.13.36l-23.92 115.43a.35.35 0 0 1-.15.22c-.08.06-.18.07-.27.06l-31-6.46Z"/><path fill="#26A69A" d="m227 170.47 27.45 5.71 11.1-53.6-12.34-9.36-15.1 3.64-11.12 53.6Z"/><path fill="#363E44" d="M256.9 95.42a.36.36 0 0 1-.28-.41l11.51-55.55c.04-.2.23-.32.42-.28.2.04.32.23.28.42l-11.51 55.55a.35.35 0 0 1-.42.28Zm-21.85 27.4a.36.36 0 0 1 .14-.7l9.02 1.88a.35.35 0 0 1-.14.7l-9.02-1.88Zm-3 14.45a.36.36 0 0 1 .15-.7l9.02 1.88a.36.36 0 0 1-.15.7l-9.01-1.88Zm-2.99 14.45a.36.36 0 0 1 .15-.7l9.01 1.88a.36.36 0 0 1-.14.7l-9.02-1.88Zm-2.99 14.45a.35.35 0 0 1 .14-.7l9.02 1.88a.36.36 0 0 1-.15.7l-9.01-1.88Zm-3 14.45a.35.35 0 0 1 .15-.7l9.01 1.88a.36.36 0 0 1-.14.7l-9.02-1.88Zm-3 14.45a.35.35 0 0 1-.27-.42c.04-.2.23-.31.42-.27l9.02 1.87a.35.35 0 0 1-.15.7l-9.02-1.88Zm-2.99 14.45a.35.35 0 0 1-.27-.42c.04-.2.22-.31.41-.27l9.02 1.87a.36.36 0 0 1-.14.7l-9.02-1.88Z"/><path fill="#fff" d="m215.9 262.52 12.2 2.55 18.76-90.47-12.22-2.54-18.74 90.46Z"/><path fill="#fff" d="m201.78 233.68 50.73 10.56 1.28-6.2-50.72-10.56-1.29 6.2Zm-1.81 32.4 41.33 8.6 1.75-8.47-41.33-8.6-1.75 8.47Z"/><path fill="#9E6C5A" d="M201.71 234.03a.35.35 0 0 1-.27-.42l1.28-6.2c.04-.2.23-.32.42-.28.2.05.32.23.28.42l-1.22 5.85 47.07 9.8c.2.05.31.24.27.43a.35.35 0 0 1-.41.27l-47.42-9.87Z"/><path fill="#ED904D" d="m247.42 115.16 10.33 2.15 4.48-21.6-3.97-6.86-6.36 4.7-4.48 21.6Z"/><path fill="#E22F59" fill-rule="evenodd" d="m210.76 117.84 78.6 78.78-8.26 8.28-78.6-78.78 8.26-8.28Z" clip-rule="evenodd"/></svg>